HIERARCHY
ROOT hip
{
	OFFSET 0.000000 0.000000 0.000000 
	CHANNELS 6 Xposition Yposition Zposition Xrotation Zrotation Yrotation
	JOINT abdomen
	{
		OFFSET 0.000000 3.402643 0.000000 
		CHANNELS 3 Xrotation Zrotation Yrotation
		JOINT chest
		{
			OFFSET 0.000000 8.438565 -0.680529 
			CHANNELS 3 Xrotation Zrotation Yrotation
			JOINT neck
			{
				OFFSET 0.000000 10.207942 -0.272212 
				CHANNELS 3 Xrotation Zrotation Yrotation
				JOINT head
				{
					OFFSET 0.000000 3.130431 0.000000 
					CHANNELS 3 Xrotation Zrotation Yrotation
					End Site
					{
						OFFSET 0.000000 3.130435 0.000000 
					}
				}
			}
			JOINT lCollar
			{
				OFFSET 3.470700 6.669187 -0.816635 
				CHANNELS 3 Yrotation Zrotation Xrotation
				JOINT lShldr
				{
					OFFSET 3.198488 0.000000 0.000000 
					CHANNELS 3 Zrotation Yrotation Xrotation
					JOINT lForeArm
					{
						OFFSET 10.139888 0.000000 0.000000 
						CHANNELS 3 Yrotation Zrotation Xrotation
						JOINT lHand
						{
							OFFSET 8.370511 0.000000 0.000000 
							CHANNELS 3 Zrotation Yrotation Xrotation
							End Site
							{
								OFFSET 4.083176 0.000000 0.000000 
							}
						}
					}
				}
			}
			JOINT rCollar
			{
				OFFSET -3.470700 6.669187 -0.816635 
				CHANNELS 3 Yrotation Zrotation Xrotation
				JOINT rShldr
				{
					OFFSET -3.198488 0.000000 0.000000 
					CHANNELS 3 Zrotation Yrotation Xrotation
					JOINT rForeArm
					{
						OFFSET -10.139888 0.000000 0.000000 
						CHANNELS 3 Yrotation Zrotation Xrotation
						JOINT rHand
						{
							OFFSET -8.370511 0.000000 0.000000 
							CHANNELS 3 Zrotation Yrotation Xrotation
							End Site
							{
								OFFSET -4.083176 0.000000 0.000000 
							}
						}
					}
				}
			}
		}
	}
	JOINT lThigh
	{
		OFFSET 5.308129 -1.633274 1.361059 
		CHANNELS 3 Xrotation Zrotation Yrotation
		JOINT lShin
		{
			OFFSET -2.041588 -20.007561 0.000000 
			CHANNELS 3 Xrotation Zrotation Yrotation
			JOINT lFoot
			{
				OFFSET 0.000000 -19.190928 -1.224953 
				CHANNELS 3 Xrotation Yrotation Zrotation
				End Site
				{
					OFFSET 0.000000 -2.449906 4.627600 
				}
			}
		}
	}
	JOINT rThigh
	{
		OFFSET -5.308129 -1.633274 1.361059 
		CHANNELS 3 Xrotation Zrotation Yrotation
		JOINT rShin
		{
			OFFSET 2.041588 -20.007561 0.000000 
			CHANNELS 3 Xrotation Zrotation Yrotation
			JOINT rFoot
			{
				OFFSET 0.000000 -19.190928 -1.224953 
				CHANNELS 3 Xrotation Yrotation Zrotation
				End Site
				{
					OFFSET 0.000000 -2.449906 4.627600 
				}
			}
		}
	}
}
MOTION
Frames: 13
Frame Time: 0.033333
-3.657285 39.049934 111.466202 -19.853516 0.771484 -171.406281 0.000000 0.000000 0.000000 5.136718 -1.484375 -2.900391 23.828125 -0.830078 -4.306652 -24.394531 5.019531 6.543824 -0.400391 -25.000000 23.974607 -37.128906 -32.021484 2.016308 -63.574219 -2.763672 -8.925781 30.947262 -3.076172 -9.775391 -16.689455 16.806643 20.410156 36.191402 -21.298826 44.824219 40.732426 -0.869141 -9.804541 -5.908203 6.640625 -6.533203 -12.182480 3.348308 2.132853 48.569302 -3.809172 -0.283045 -21.514984 2.752473 -12.311091 -47.110996 -9.637593 2.403595 104.777237 -7.237050 -9.543152 -1.826873 -0.526104 6.725691 
-4.080238 39.113930 107.549416 -19.902346 2.812500 -168.789063 0.000000 0.000000 0.000000 4.814454 -0.878906 -4.873197 24.462891 5.429688 -8.573296 -24.111328 1.914063 12.080404 -12.216797 -25.000000 20.521706 -32.343750 -38.847652 -6.383077 -80.117180 -2.656250 -5.204626 28.613281 -6.679688 -10.429686 -21.611326 11.484375 18.503916 24.746094 -36.250004 56.464844 54.970699 -1.787109 -5.585937 -5.156250 7.998046 -6.503906 -2.143967 4.571509 -2.613076 36.240520 -3.740905 1.859216 -18.684280 2.746043 -13.409813 -62.212231 -6.210862 1.885884 109.427284 -7.481551 -13.978056 -6.666646 -0.156660 0.784358 
-4.601465 39.459076 103.097626 -20.302736 5.341797 -167.236328 0.000000 0.000000 0.000000 4.560547 -0.107422 -6.992206 21.445313 13.535157 -13.056641 -22.421875 -3.466797 18.662109 -23.486328 -24.287111 17.875109 -26.289063 -39.941406 -18.798828 -97.128906 -2.402344 -0.067950 26.923826 -10.751953 -11.210938 -27.070311 6.562500 17.420759 12.851563 -41.328121 65.423241 66.464844 -2.246094 -4.003524 -4.863281 8.496215 -6.483032 8.757125 6.414932 0.412929 20.810743 0.289503 2.230659 -6.851726 1.774064 -15.549267 -72.496468 -3.466394 0.978892 104.954132 -7.295728 -14.090856 -11.581795 -0.127592 0.240375 
-5.280186 40.029694 98.367912 -20.878906 7.294921 -167.148438 0.000000 0.000000 0.000000 4.404297 0.966797 -8.242023 17.080078 20.019531 -16.139235 -20.878906 -8.964844 23.261719 -29.248049 -18.154297 16.787109 -25.195313 -36.298828 -22.958984 -111.240234 -1.855469 8.379222 26.748047 -12.578125 -11.642752 -30.400391 4.707032 17.010916 7.880859 -42.324215 64.794922 73.173828 -2.236328 -6.640625 -5.292969 7.900392 -6.513672 17.517775 7.119490 12.833509 7.775171 3.502469 -3.707916 12.515359 -0.623797 -16.445581 -77.329880 -1.669925 0.163841 95.583992 -6.768571 -11.405838 -13.371191 -0.965804 5.138229 
-6.152595 40.838924 93.431671 -20.732422 7.138672 -168.367935 0.000000 0.000000 0.000000 4.394531 1.425781 -7.997803 16.347656 21.533203 -15.680009 -20.478516 -11.503905 23.798832 -27.822268 -18.857422 17.011717 -32.460938 -29.306641 -10.390625 -116.289063 -1.396484 15.351563 26.250002 -11.767578 -11.320349 -29.912109 6.533203 17.070311 12.939453 -42.050781 55.683594 75.117188 -2.060547 -10.527344 -6.367188 6.826172 -6.629700 18.413143 7.099209 10.734334 11.905550 2.498330 1.508726 27.090654 -2.327019 -15.977248 -75.086998 -1.396165 -1.099067 84.611526 -5.996599 -8.065907 -10.498483 -1.022787 6.696707 
-7.174275 41.677944 88.200821 -18.701172 5.488281 -169.433594 0.000000 0.000000 0.000000 4.736328 1.103516 -6.728517 19.248045 19.052736 -13.007813 -19.716799 -11.210938 20.917971 -21.503906 -25.000000 19.414063 -40.693363 -19.638672 7.167968 -107.617188 -1.474609 14.599860 24.326172 -7.412109 -9.853516 -27.607420 11.347656 18.669952 24.423828 -35.253906 43.935547 73.427734 -1.904297 -12.900065 -8.222656 6.123047 -6.875124 12.253831 6.639561 -2.588797 33.293869 -3.569405 9.116658 30.459539 -2.682264 -15.678471 -64.311058 -2.958217 -3.287890 74.254379 -5.155966 -5.455021 -8.097335 -0.804524 5.863401 
-8.135245 42.011272 82.951469 -15.585937 5.390625 -169.862366 0.000000 0.000000 0.000000 5.283204 1.425781 -4.989991 21.562500 16.240234 -9.977737 -16.933594 -10.078124 16.502197 -13.183595 -25.000000 23.251951 -45.361328 -12.597656 15.781251 -85.830078 -1.943359 7.080410 23.828125 0.693359 -7.841797 -25.839846 19.111326 21.835939 32.265625 -19.326170 37.399113 70.048828 -1.796875 -13.778990 -10.253906 6.484375 -7.244991 2.977776 6.375046 -2.469565 62.157093 -3.432218 1.719193 27.609232 -2.207984 -15.115945 -48.677452 -3.818119 -6.330033 64.854546 -4.326313 -3.764531 -9.634411 -0.942443 6.324285 
-8.867775 41.745274 77.835152 -13.652344 7.783204 -171.043610 0.000000 0.000000 0.000000 5.400391 2.636719 -3.144057 20.595703 14.335937 -5.703125 -12.871094 -8.984374 11.639100 -4.960938 -25.000000 24.482422 -46.201176 -5.537109 20.595703 -59.931637 -2.207031 0.478892 24.462891 3.789063 -7.157558 -23.662109 25.000000 24.541016 34.628902 2.041015 35.029293 67.128906 -1.767578 -13.105165 -11.464844 7.382812 -7.568359 -10.158019 8.763460 -3.101918 91.359856 -1.826362 -2.963071 22.287388 -1.660825 -15.441885 -33.986988 -0.888165 -8.104475 56.268959 -3.487882 -2.197880 -194.847183 181.181458 -174.106842 
-9.545769 41.149738 73.069199 165.957047 170.214844 4.913769 0.000000 0.000000 0.000000 4.931641 3.212891 -0.790468 17.011719 11.972656 0.410156 -9.570313 -7.978516 6.601562 2.988281 -25.000000 21.474607 -42.167969 8.232422 28.506441 -47.480465 -2.431641 -5.409781 23.505859 3.515625 -7.148438 -16.630859 24.999998 24.267576 38.339844 25.175781 31.884764 66.748047 -1.992187 -8.671875 -11.279297 7.861328 -7.596319 -28.077959 11.491187 -4.008514 115.552994 0.336285 -6.903463 14.573052 -0.832977 -16.237215 -23.176538 2.791872 -5.718434 49.241783 -2.769172 -0.059627 -22.233877 -0.858241 3.032314 
-10.579104 40.677555 68.176933 164.912125 171.621094 -0.535686 0.000000 0.000000 0.000000 4.404297 2.587890 1.972656 13.544922 7.753906 6.953125 -7.675781 -6.767579 1.092599 11.464843 -22.382811 17.773438 -32.998047 27.099607 37.578125 -54.580078 -2.597656 -7.011718 21.542969 3.798828 -6.923827 -2.929688 25.000000 20.527344 47.773441 46.025391 27.067572 70.166016 -2.451172 -1.884766 -10.107422 8.671875 -7.478995 -49.720139 11.815047 -5.104452 129.546524 1.729178 -8.951797 8.639518 -0.067643 -14.695579 -12.868330 1.777495 0.021925 41.724934 -2.047371 1.370540 -28.042917 -0.681626 2.030024 
-11.937144 40.573040 62.440880 164.912125 175.781250 -3.544204 0.000000 0.000000 0.000000 4.111328 1.298828 4.550782 11.972657 2.060547 11.806991 -6.650391 -4.638672 -4.805477 18.779297 -17.792967 16.162109 -18.027344 41.689453 49.762356 -69.921875 -2.685547 -6.718750 20.361328 2.978516 -6.991678 10.380859 25.000000 17.447044 56.123047 61.513676 22.031250 75.126953 -2.861328 3.339844 -9.589845 9.814453 -7.499999 -69.515854 9.599098 -5.489705 131.354340 1.985531 -5.421410 5.604497 0.269827 -11.066656 0.156295 -4.485658 4.761252 29.720201 -0.942263 -0.353997 -25.229252 -1.388390 4.654615 
-13.198170 40.933430 56.273041 164.619156 -179.912109 -2.548843 0.000000 0.000000 0.000000 3.876953 -0.537109 6.142496 13.281250 -2.832031 13.408202 -7.871093 -1.699219 -9.531540 21.718750 -13.281250 15.439455 -1.328125 50.380859 63.691406 -84.130859 -2.734375 -6.416015 21.572266 1.103516 -7.509578 17.451172 14.716797 15.671349 53.007813 69.541016 13.691409 79.257813 -3.154297 7.256396 -9.394530 10.507813 -7.527515 -82.569710 6.660044 -4.728537 122.895073 1.225556 1.663639 3.082511 0.439070 -8.561764 13.929097 -9.635317 -7.771414 14.699066 -3.934354 5.758107 -9.003228 -0.844528 6.179176 
-14.245389 41.781498 50.200428 163.789063 -179.082031 1.269375 0.000000 0.000000 0.000000 3.554688 -1.044922 6.220525 18.964842 -4.365234 11.357422 -13.808595 0.292969 -11.474609 19.375002 -10.302736 14.298619 8.349609 58.681637 72.128906 -93.476563 -2.695313 -5.272978 24.863283 -0.039063 -8.134773 17.265625 8.369140 13.865768 49.384769 68.847656 12.460281 82.851563 -3.417969 11.162108 -8.339843 11.406250 -7.410176 -85.933540 4.580021 -4.768940 106.494080 -0.403214 4.327106 2.301750 0.450871 -7.716500 19.447321 -9.295211 -12.617559 12.699750 -3.167301 3.333797 11.612959 0.166276 4.257930 
